<svg id="Layer_1" data-name="Layer 1" xmlns="http://www.w3.org/2000/svg" viewBox="0 0 832.26 293.97"><path d="M133.11.17c-.69.69.15.69.42.75,1.39.33,2.82.53,4.22.88,13.86,3.47,24.8,11.32,33.37,22.58a74.4,74.4,0,0,1,14.75,38c.15,1.43.3,2.86.37,4.29,0,.89.43,1.21,1.26,1.18.61,0,1.21,0,1.82,0h52c.6,0,1.21,0,1.82,0,4.13,0,6.32,2.34,6.13,6.41l-.42,8.61q-1.12,22.91-2.26,45.8L243.89,184l-2.73,55.31q-.42,8.5-.85,17a25.56,25.56,0,0,1-20.26,23.76,25.09,25.09,0,0,1-5.19.42q-90.66,0-181.31,0c-13.06,0-21.89-9.49-24-20.63a72.41,72.41,0,0,1-.74-10.18c-.6-11.86-1-23.73-1.59-35.6q-1-22.11-2.06-44.21-.75-16.11-1.46-32.2Q2.57,113.79,1.47,89.87c-.11-2.42-.16-4.84-.29-7.26,0-.45.26-1.28-.76-1.17v-10a.46.46,0,0,0,.73-.21c1.28-2.7,3.53-3.41,6.35-3.4,17.72,0,35.44,0,53.16,0,.61,0,1.22,0,1.82,0,1,.08,1.33-.39,1.4-1.31.16-2.11.31-4.23.59-6.33a73.84,73.84,0,0,1,15.41-37c8.5-10.68,19.2-18.11,32.59-21.42,1.39-.34,2.82-.54,4.22-.87.26-.06,1.09,0,.52-.73ZM124,102.68a52.27,52.27,0,0,0-8.39.56c-9.21,1.51-17.37,5.16-24,11.89C80,127,78.93,145,89.17,157.47a42.63,42.63,0,0,0,15.51,12A240.12,240.12,0,0,0,129.42,179a61.54,61.54,0,0,1,15.92,7.61,32.36,32.36,0,0,1,8.16,7.8,20.55,20.55,0,0,1-2.23,27,27.81,27.81,0,0,1-9.64,6.26,45.76,45.76,0,0,1-27.42,2A65.72,65.72,0,0,1,89.08,218c-1-.77-2-1.6-3.08-2.32s-2.06-.75-2.79.28c-1.9,2.64-3.69,5.36-5.51,8.06a1.42,1.42,0,0,0,.34,2c.33.31.68.6,1,.89a68.76,68.76,0,0,0,25.65,13.67c11.82,3.32,23.75,4.5,35.87,1.54,18.81-4.6,28.36-17.87,30-32.37,1.18-10.31-1.47-19.32-8.85-26.79a58.58,58.58,0,0,0-14.11-10.2,149.31,149.31,0,0,0-24.31-10A71.34,71.34,0,0,1,108,156a28.89,28.89,0,0,1-8.32-7.28,17.94,17.94,0,0,1-2.65-17.6,22.22,22.22,0,0,1,10.35-11.9A31.5,31.5,0,0,1,123.05,115a59.39,59.39,0,0,1,18.75,3,61,61,0,0,1,14.49,7c2.27,1.46,2.64,1.36,4.11-1,1.14-1.79,2.27-3.58,3.37-5.38,1.29-2.12,1.11-2.86-1-4.29l-.76-.5A73.61,73.61,0,0,0,124,102.68Zm1-34.82H167.4c2.11,0,2.16,0,2-2.11a60.28,60.28,0,0,0-1.81-11.41c-3-11.42-8.62-21.26-17.92-28.75A38.2,38.2,0,0,0,123,16.7,38.64,38.64,0,0,0,98.61,27.08c-11.61,10.54-17,24-18,39.39-.07,1,.16,1.45,1.2,1.39.53,0,1.06,0,1.59,0Z" transform="translate(-0.42 -0.17)" fill="#fff"/><rect x="56.94" y="86.83" width="135" height="175" fill="#fff"/><text transform="translate(63.6 243.72)" font-size="210" fill="#ed4d30" font-family="Corbel">B</text><text transform="translate(273.63 243.24)" font-size="210" fill="#fff" font-family="Corbel">Blonjo</text></svg>